<svg width="113" height="25" viewBox="0 0 113 25" fill="none" xmlns="http://www.w3.org/2000/svg">
<path d="M100.5 21C105.747 21 110 16.7467 110 11.5C110 6.25329 105.747 2 100.5 2C95.2533 2 91 6.25329 91 11.5C91 16.7467 95.2533 21 100.5 21Z" stroke="#282828" stroke-width="1.5" stroke-linecap="round" stroke-linejoin="round"/>
<path d="M111 22L109 20" stroke="#282828" stroke-width="1.5" stroke-linecap="round" stroke-linejoin="round"/>
<path d="M2.19531 16C1.98177 16 1.76302 15.9948 1.53906 15.9844C1.3151 15.974 1.08854 15.9583 0.859375 15.9375V14.5938C1.18229 14.6146 1.45573 14.6328 1.67969 14.6484C1.90365 14.6589 2.1276 14.6641 2.35156 14.6641C2.5651 14.6641 2.75 14.6615 2.90625 14.6562C3.06771 14.651 3.20052 14.6406 3.30469 14.625C3.30469 14.625 3.27865 14.4714 3.22656 14.1641C3.17969 13.8568 3.10156 13.4297 2.99219 12.8828C2.88281 12.3359 2.73438 11.7057 2.54688 10.9922C2.35938 10.2734 2.1276 9.5026 1.85156 8.67969C1.57552 7.85677 1.2474 7.01562 0.867188 6.15625L2.07812 5.59375C2.45312 6.47917 2.77865 7.34896 3.05469 8.20312C3.33594 9.05729 3.57292 9.85677 3.76562 10.6016C3.95833 11.3464 4.11198 12.0026 4.22656 12.5703C4.34635 13.138 4.43229 13.5833 4.48438 13.9062C4.53646 14.224 4.5625 14.3828 4.5625 14.3828C4.95312 14.2734 5.30208 14.1068 5.60938 13.8828C5.91667 13.6536 6.15885 13.3229 6.33594 12.8906C6.51302 12.4531 6.60156 11.8646 6.60156 11.125V5.24219H7.92188V11.1484C7.92188 11.9349 7.83073 12.6094 7.64844 13.1719C7.46615 13.7292 7.20573 14.1927 6.86719 14.5625C6.52865 14.9271 6.1224 15.2161 5.64844 15.4297C5.17969 15.638 4.65365 15.7865 4.07031 15.875C3.48698 15.9583 2.86198 16 2.19531 16ZM10.3047 5.24219H11.625V12.7109C11.625 13.4453 11.7604 13.9401 12.0312 14.1953C12.3021 14.4505 12.7109 14.5781 13.2578 14.5781H13.4531V16H13.2578C12.263 16 11.5208 15.737 11.0312 15.2109C10.5469 14.6797 10.3047 13.8438 10.3047 12.7031V5.24219ZM15.0156 8.42188C15.3802 8.67708 15.7578 8.94271 16.1484 9.21875C16.5391 9.49479 16.9167 9.78385 17.2812 10.0859C17.6458 10.388 17.974 10.7083 18.2656 11.0469C18.5625 11.3802 18.7969 11.7318 18.9688 12.1016C19.1406 12.4714 19.2266 12.8594 19.2266 13.2656C19.2266 13.9115 19.0781 14.4349 18.7812 14.8359C18.4896 15.237 18.0365 15.5312 17.4219 15.7188C16.8073 15.9062 16.0156 16 15.0469 16H13.1406V14.5781H15.0391C15.7161 14.5781 16.2604 14.5417 16.6719 14.4688C17.0885 14.3906 17.3906 14.2552 17.5781 14.0625C17.7708 13.8646 17.8672 13.5885 17.8672 13.2344C17.8672 12.9583 17.7865 12.6875 17.625 12.4219C17.4688 12.1562 17.2552 11.8958 16.9844 11.6406C16.7188 11.3802 16.4219 11.125 16.0938 10.875C15.7656 10.625 15.4271 10.3776 15.0781 10.1328C14.7344 9.88281 14.4089 9.63542 14.1016 9.39062C13.9349 9.25521 13.8073 9.09635 13.7188 8.91406C13.6302 8.73177 13.5859 8.54948 13.5859 8.36719C13.5859 8.15365 13.6432 7.95312 13.7578 7.76562C13.8776 7.57292 14.0625 7.42708 14.3125 7.32812L19.9297 5.04688V6.42969L15.0156 8.42188ZM32.4062 10.2891C32.8125 10.2891 33.1901 10.3802 33.5391 10.5625C33.888 10.7448 34.1953 11.0182 34.4609 11.3828C34.7266 11.7422 34.9349 12.1901 35.0859 12.7266C35.237 13.2578 35.3177 13.875 35.3281 14.5781H36.2734V16H35.2031C35.0885 16.599 34.8594 17.1771 34.5156 17.7344C34.1771 18.2969 33.6719 18.7917 33 19.2188C32.3281 19.651 31.4375 19.974 30.3281 20.1875L29.8672 18.9453C30.6536 18.7943 31.3281 18.5859 31.8906 18.3203C32.4583 18.0547 32.9141 17.7292 33.2578 17.3438C33.6068 16.9583 33.8438 16.5104 33.9688 16H32.7344C31.7448 16 31.0026 15.8021 30.5078 15.4062C30.0182 15.0052 29.7734 14.4036 29.7734 13.6016C29.7734 13.2161 29.8307 12.8307 29.9453 12.4453C30.0651 12.0547 30.237 11.6979 30.4609 11.375C30.6901 11.0469 30.9661 10.7839 31.2891 10.5859C31.6172 10.388 31.9896 10.2891 32.4062 10.2891ZM32.6562 14.5781H34.0391C34.0078 14.0781 33.9505 13.6458 33.8672 13.2812C33.7839 12.9167 33.6745 12.6172 33.5391 12.3828C33.4036 12.1484 33.2396 11.9766 33.0469 11.8672C32.8542 11.7526 32.6328 11.6953 32.3828 11.6953C32.0495 11.6953 31.7865 11.8021 31.5938 12.0156C31.4062 12.2292 31.2734 12.4818 31.1953 12.7734C31.1224 13.0599 31.0859 13.3203 31.0859 13.5547C31.0859 13.9193 31.2083 14.1823 31.4531 14.3438C31.7031 14.5 32.1042 14.5781 32.6562 14.5781ZM41.3281 17.1953L42.4609 18.3281L41.3281 19.4609L40.1953 18.3281L41.3281 17.1953ZM46.1562 11.6641V13.0156C45.9323 13.0365 45.6693 13.0938 45.3672 13.1875C45.0651 13.276 44.7448 13.401 44.4062 13.5625C44.4115 13.849 44.5052 14.0651 44.6875 14.2109C44.875 14.3568 45.1432 14.4557 45.4922 14.5078C45.8411 14.5547 46.263 14.5781 46.7578 14.5781H47.1875V16H46.7266C46.0182 16 45.4297 15.9401 44.9609 15.8203C44.4922 15.7005 44.1302 15.5 43.875 15.2188C43.625 14.9323 43.4635 14.5469 43.3906 14.0625C42.7031 14.4375 42.0312 14.7708 41.375 15.0625C40.724 15.3542 40.0625 15.5833 39.3906 15.75C38.724 15.9167 38.0182 16 37.2734 16H35.9688V14.5781H37.2969C37.9062 14.5781 38.4661 14.5234 38.9766 14.4141C39.487 14.3047 39.9844 14.1536 40.4688 13.9609C40.9583 13.7682 41.4688 13.5417 42 13.2812C42.5365 13.0156 43.1354 12.7318 43.7969 12.4297C43.4271 12.2943 43.0443 12.1484 42.6484 11.9922C42.2526 11.8307 41.875 11.6797 41.5156 11.5391C41.1615 11.3984 40.8516 11.2839 40.5859 11.1953C40.3203 11.1016 40.1328 11.0547 40.0234 11.0547C39.7057 11.0547 39.4245 11.1484 39.1797 11.3359C38.9401 11.5182 38.7188 11.7396 38.5156 12L38.3047 12.2656L37.1094 11.6797L37.2266 11.4922C37.5703 10.9349 37.9688 10.4896 38.4219 10.1562C38.8802 9.81771 39.4167 9.64844 40.0312 9.64844C40.2917 9.64844 40.6016 9.71354 40.9609 9.84375C41.3203 9.97396 41.7135 10.138 42.1406 10.3359C42.5677 10.5286 43.0104 10.7266 43.4688 10.9297C43.9271 11.1276 44.3854 11.2969 44.8438 11.4375C45.3021 11.5729 45.7396 11.6484 46.1562 11.6641ZM46.875 14.5781H47.4297V16H46.875V14.5781ZM50.3125 7.54688L51.4062 8.63281L50.3125 9.73438L49.2266 8.63281L50.3125 7.54688ZM47.7188 7.54688L48.8125 8.63281L47.7188 9.73438L46.6328 8.63281L47.7188 7.54688ZM49.7422 11.3828L51.0469 11.2266L51.1719 13.0547C51.1927 13.388 51.2656 13.6693 51.3906 13.8984C51.5156 14.1224 51.6901 14.2917 51.9141 14.4062C52.1432 14.5208 52.4245 14.5781 52.7578 14.5781H52.9219V16H52.7422C52.3568 16 52.0234 15.9531 51.7422 15.8594C51.4609 15.7656 51.2214 15.6302 51.0234 15.4531C50.8255 15.276 50.6562 15.0599 50.5156 14.8047C50.2344 15.2161 49.8646 15.5182 49.4062 15.7109C48.9479 15.9036 48.4688 16 47.9688 16H47.2188V14.5781H47.9688C48.6302 14.5781 49.1016 14.4297 49.3828 14.1328C49.6693 13.8359 49.8125 13.3802 49.8125 12.7656C49.8125 12.5156 49.8047 12.2786 49.7891 12.0547C49.7786 11.8307 49.763 11.6068 49.7422 11.3828ZM62.1484 16C61.6484 16 61.2448 15.8958 60.9375 15.6875C60.6302 15.4792 60.3802 15.1849 60.1875 14.8047C59.8958 15.2266 59.5703 15.5312 59.2109 15.7188C58.8568 15.9062 58.4714 16 58.0547 16C57.4557 16 56.9922 15.8984 56.6641 15.6953C56.3411 15.487 56.0833 15.1901 55.8906 14.8047C55.6458 15.1901 55.3333 15.487 54.9531 15.6953C54.5729 15.8984 54.0312 16 53.3281 16H52.6094V14.5781H53.3438C53.7917 14.5781 54.1562 14.526 54.4375 14.4219C54.7188 14.3125 54.9271 14.1328 55.0625 13.8828C55.1979 13.6328 55.2656 13.2891 55.2656 12.8516C55.2656 12.7578 55.263 12.6562 55.2578 12.5469C55.2526 12.4375 55.2448 12.3073 55.2344 12.1562C55.224 12 55.2083 11.8125 55.1875 11.5938L56.4922 11.4297L56.6172 13.0625C56.6484 13.5 56.7812 13.862 57.0156 14.1484C57.2552 14.4349 57.6068 14.5781 58.0703 14.5781C58.6224 14.5781 58.9974 14.4297 59.1953 14.1328C59.3932 13.8359 59.4922 13.4089 59.4922 12.8516C59.4922 12.7578 59.4896 12.6562 59.4844 12.5469C59.4792 12.4375 59.4714 12.3073 59.4609 12.1562C59.4505 12 59.4349 11.8125 59.4141 11.5938L60.7188 11.4297L60.8438 13.0625C60.8698 13.4844 60.9818 13.8438 61.1797 14.1406C61.3776 14.4323 61.6979 14.5781 62.1406 14.5781C62.401 14.5781 62.6146 14.513 62.7812 14.3828C62.9531 14.2474 63.0807 14.0521 63.1641 13.7969C63.2526 13.5417 63.2969 13.2266 63.2969 12.8516C63.2969 12.6641 63.2891 12.4688 63.2734 12.2656C63.263 12.0625 63.2448 11.7943 63.2188 11.4609L64.5234 11.3047L64.6484 13.0625C64.6797 13.5625 64.8255 13.9401 65.0859 14.1953C65.3516 14.4505 65.7214 14.5781 66.1953 14.5781H66.4297V16H66.2109C65.6641 16 65.2083 15.901 64.8438 15.7031C64.4792 15.5 64.2292 15.1979 64.0938 14.7969C63.875 15.1823 63.6224 15.4792 63.3359 15.6875C63.0547 15.8958 62.6589 16 62.1484 16ZM71.4844 17.1953L72.6172 18.3281L71.4844 19.4609L70.3516 18.3281L71.4844 17.1953ZM66.125 14.5781H67.4531C68.0625 14.5781 68.6224 14.5234 69.1328 14.4141C69.6432 14.3047 70.1406 14.1536 70.625 13.9609C71.1146 13.7682 71.625 13.5417 72.1562 13.2812C72.6927 13.0156 73.2917 12.7318 73.9531 12.4297C73.5833 12.2943 73.2005 12.1484 72.8047 11.9922C72.4089 11.8307 72.0312 11.6797 71.6719 11.5391C71.3177 11.3984 71.0078 11.2839 70.7422 11.1953C70.4766 11.1016 70.2891 11.0547 70.1797 11.0547C69.862 11.0547 69.5807 11.1484 69.3359 11.3359C69.0964 11.5182 68.875 11.7396 68.6719 12L68.4609 12.2656L67.2656 11.6797L67.3828 11.4922C67.7266 10.9349 68.125 10.4896 68.5781 10.1562C69.0365 9.81771 69.5729 9.64844 70.1875 9.64844C70.4479 9.64844 70.7578 9.71354 71.1172 9.84375C71.4766 9.97396 71.8698 10.138 72.2969 10.3359C72.724 10.5286 73.1667 10.7266 73.625 10.9297C74.0833 11.1276 74.5417 11.2969 75 11.4375C75.4583 11.5729 75.8958 11.6484 76.3125 11.6641V13.0156C76.0938 13.0417 75.8333 13.1042 75.5312 13.2031C75.2292 13.2969 74.8724 13.4375 74.4609 13.625C74.0495 13.8125 73.5677 14.0521 73.0156 14.3438C72.349 14.6979 71.7292 15 71.1562 15.25C70.5885 15.4948 70.0078 15.6823 69.4141 15.8125C68.8255 15.9375 68.1641 16 67.4297 16H66.125V14.5781Z" fill="black" fill-opacity="0.6"/>
</svg>
